<mxfile host="app.diagrams.net" modified="2024-01-22T06:38:46.822Z" agent="Mozilla/5.0 (Macintosh; Intel Mac OS X 10_15_7) AppleWebKit/537.36 (KHTML, like Gecko) Chrome/120.0.0.0 Safari/537.36" etag="dLrqEXNwHCFq64NnQByc" version="22.1.16" type="github">
  <diagram id="C5RBs43oDa-KdzZeNtuy" name="Page-1">
    <mxGraphModel dx="1026" dy="684" grid="1" gridSize="10" guides="1" tooltips="1" connect="1" arrows="1" fold="1" page="1" pageScale="1" pageWidth="827" pageHeight="1169" math="1" shadow="0">
      <root>
        <mxCell id="WIyWlLk6GJQsqaUBKTNV-0" />
        <mxCell id="WIyWlLk6GJQsqaUBKTNV-1" parent="WIyWlLk6GJQsqaUBKTNV-0" />
        <mxCell id="L8nHPf2Kupn2UbBE6luy-46" value="" style="edgeStyle=orthogonalEdgeStyle;rounded=0;orthogonalLoop=1;jettySize=auto;html=1;" edge="1" parent="WIyWlLk6GJQsqaUBKTNV-1" source="L8nHPf2Kupn2UbBE6luy-45" target="El6n9iGaWaCwRH9-0ciH-72">
          <mxGeometry relative="1" as="geometry" />
        </mxCell>
        <mxCell id="L8nHPf2Kupn2UbBE6luy-45" value="" style="rounded=0;whiteSpace=wrap;html=1;glass=0;labelBackgroundColor=none;strokeColor=none;gradientColor=none;" vertex="1" parent="WIyWlLk6GJQsqaUBKTNV-1">
          <mxGeometry x="85" y="230" width="600" height="1480" as="geometry" />
        </mxCell>
        <mxCell id="El6n9iGaWaCwRH9-0ciH-1" value="" style="edgeStyle=orthogonalEdgeStyle;rounded=0;orthogonalLoop=1;jettySize=auto;html=1;" parent="WIyWlLk6GJQsqaUBKTNV-1" source="WIyWlLk6GJQsqaUBKTNV-3" target="El6n9iGaWaCwRH9-0ciH-0" edge="1">
          <mxGeometry relative="1" as="geometry" />
        </mxCell>
        <mxCell id="WIyWlLk6GJQsqaUBKTNV-3" value="脚本执行" style="rounded=1;whiteSpace=wrap;html=1;fontSize=12;glass=0;strokeWidth=1;shadow=0;" parent="WIyWlLk6GJQsqaUBKTNV-1" vertex="1">
          <mxGeometry x="160" y="80" width="120" height="40" as="geometry" />
        </mxCell>
        <mxCell id="El6n9iGaWaCwRH9-0ciH-10" style="edgeStyle=orthogonalEdgeStyle;rounded=0;orthogonalLoop=1;jettySize=auto;html=1;entryX=0;entryY=0.5;entryDx=0;entryDy=0;" parent="WIyWlLk6GJQsqaUBKTNV-1" source="WIyWlLk6GJQsqaUBKTNV-6" target="El6n9iGaWaCwRH9-0ciH-9" edge="1">
          <mxGeometry relative="1" as="geometry" />
        </mxCell>
        <mxCell id="El6n9iGaWaCwRH9-0ciH-11" value="yes" style="edgeLabel;html=1;align=center;verticalAlign=middle;resizable=0;points=[];" parent="El6n9iGaWaCwRH9-0ciH-10" vertex="1" connectable="0">
          <mxGeometry x="-0.203" y="-1" relative="1" as="geometry">
            <mxPoint as="offset" />
          </mxGeometry>
        </mxCell>
        <mxCell id="El6n9iGaWaCwRH9-0ciH-14" value="" style="edgeStyle=orthogonalEdgeStyle;rounded=0;orthogonalLoop=1;jettySize=auto;html=1;" parent="WIyWlLk6GJQsqaUBKTNV-1" source="WIyWlLk6GJQsqaUBKTNV-6" target="El6n9iGaWaCwRH9-0ciH-13" edge="1">
          <mxGeometry relative="1" as="geometry" />
        </mxCell>
        <mxCell id="El6n9iGaWaCwRH9-0ciH-18" value="no" style="edgeLabel;html=1;align=center;verticalAlign=middle;resizable=0;points=[];" parent="El6n9iGaWaCwRH9-0ciH-14" vertex="1" connectable="0">
          <mxGeometry x="-0.2" y="1" relative="1" as="geometry">
            <mxPoint as="offset" />
          </mxGeometry>
        </mxCell>
        <mxCell id="WIyWlLk6GJQsqaUBKTNV-6" value="备份计划中instance_type!=agent" style="rhombus;whiteSpace=wrap;html=1;shadow=0;fontFamily=Helvetica;fontSize=12;align=center;strokeWidth=1;spacing=6;spacingTop=-4;" parent="WIyWlLk6GJQsqaUBKTNV-1" vertex="1">
          <mxGeometry x="121.25" y="380" width="197.5" height="110" as="geometry" />
        </mxCell>
        <mxCell id="El6n9iGaWaCwRH9-0ciH-5" value="" style="edgeStyle=orthogonalEdgeStyle;rounded=0;orthogonalLoop=1;jettySize=auto;html=1;" parent="WIyWlLk6GJQsqaUBKTNV-1" source="WIyWlLk6GJQsqaUBKTNV-7" target="WIyWlLk6GJQsqaUBKTNV-6" edge="1">
          <mxGeometry relative="1" as="geometry" />
        </mxCell>
        <mxCell id="WIyWlLk6GJQsqaUBKTNV-7" value="循环备份计划数据" style="rounded=1;whiteSpace=wrap;html=1;fontSize=12;glass=0;strokeWidth=1;shadow=0;" parent="WIyWlLk6GJQsqaUBKTNV-1" vertex="1">
          <mxGeometry x="160" y="290" width="120" height="40" as="geometry" />
        </mxCell>
        <mxCell id="El6n9iGaWaCwRH9-0ciH-4" value="" style="edgeStyle=orthogonalEdgeStyle;rounded=0;orthogonalLoop=1;jettySize=auto;html=1;" parent="WIyWlLk6GJQsqaUBKTNV-1" source="El6n9iGaWaCwRH9-0ciH-0" target="WIyWlLk6GJQsqaUBKTNV-7" edge="1">
          <mxGeometry relative="1" as="geometry" />
        </mxCell>
        <mxCell id="El6n9iGaWaCwRH9-0ciH-0" value="读取策略配置csv文件、获取备份计划数据" style="rounded=1;whiteSpace=wrap;html=1;fontSize=12;glass=0;strokeWidth=1;shadow=0;" parent="WIyWlLk6GJQsqaUBKTNV-1" vertex="1">
          <mxGeometry x="155" y="180" width="130" height="40" as="geometry" />
        </mxCell>
        <mxCell id="El6n9iGaWaCwRH9-0ciH-9" value="不检查" style="rounded=1;whiteSpace=wrap;html=1;fontSize=12;glass=0;strokeWidth=1;shadow=0;" parent="WIyWlLk6GJQsqaUBKTNV-1" vertex="1">
          <mxGeometry x="420" y="415" width="120" height="40" as="geometry" />
        </mxCell>
        <mxCell id="El6n9iGaWaCwRH9-0ciH-16" value="" style="edgeStyle=orthogonalEdgeStyle;rounded=0;orthogonalLoop=1;jettySize=auto;html=1;" parent="WIyWlLk6GJQsqaUBKTNV-1" source="El6n9iGaWaCwRH9-0ciH-13" target="El6n9iGaWaCwRH9-0ciH-15" edge="1">
          <mxGeometry relative="1" as="geometry" />
        </mxCell>
        <mxCell id="El6n9iGaWaCwRH9-0ciH-17" value="no" style="edgeLabel;html=1;align=center;verticalAlign=middle;resizable=0;points=[];" parent="El6n9iGaWaCwRH9-0ciH-16" vertex="1" connectable="0">
          <mxGeometry x="0.0962" y="-2" relative="1" as="geometry">
            <mxPoint as="offset" />
          </mxGeometry>
        </mxCell>
        <mxCell id="El6n9iGaWaCwRH9-0ciH-20" value="" style="edgeStyle=orthogonalEdgeStyle;rounded=0;orthogonalLoop=1;jettySize=auto;html=1;entryX=0.5;entryY=0;entryDx=0;entryDy=0;" parent="WIyWlLk6GJQsqaUBKTNV-1" source="El6n9iGaWaCwRH9-0ciH-13" target="L8nHPf2Kupn2UbBE6luy-0" edge="1">
          <mxGeometry relative="1" as="geometry" />
        </mxCell>
        <mxCell id="El6n9iGaWaCwRH9-0ciH-21" value="yes" style="edgeLabel;html=1;align=center;verticalAlign=middle;resizable=0;points=[];" parent="El6n9iGaWaCwRH9-0ciH-20" vertex="1" connectable="0">
          <mxGeometry x="0.24" relative="1" as="geometry">
            <mxPoint as="offset" />
          </mxGeometry>
        </mxCell>
        <mxCell id="El6n9iGaWaCwRH9-0ciH-13" value="环境在默认配置中" style="rhombus;whiteSpace=wrap;html=1;shadow=0;fontFamily=Helvetica;fontSize=12;align=center;strokeWidth=1;spacing=6;spacingTop=-4;" parent="WIyWlLk6GJQsqaUBKTNV-1" vertex="1">
          <mxGeometry x="130" y="550" width="180" height="100" as="geometry" />
        </mxCell>
        <mxCell id="El6n9iGaWaCwRH9-0ciH-15" value="不检查" style="rounded=1;whiteSpace=wrap;html=1;fontSize=12;glass=0;strokeWidth=1;shadow=0;" parent="WIyWlLk6GJQsqaUBKTNV-1" vertex="1">
          <mxGeometry x="420" y="580" width="120" height="40" as="geometry" />
        </mxCell>
        <mxCell id="El6n9iGaWaCwRH9-0ciH-32" value="信息写入附件" style="rounded=1;whiteSpace=wrap;html=1;" parent="WIyWlLk6GJQsqaUBKTNV-1" vertex="1">
          <mxGeometry x="730" y="960" width="20" height="510" as="geometry" />
        </mxCell>
        <mxCell id="El6n9iGaWaCwRH9-0ciH-68" value="循环判断逻辑" style="rounded=1;whiteSpace=wrap;html=1;fillColor=#f8cecc;strokeColor=#b85450;" parent="WIyWlLk6GJQsqaUBKTNV-1" vertex="1">
          <mxGeometry x="490" y="270" width="120" height="60" as="geometry" />
        </mxCell>
        <mxCell id="El6n9iGaWaCwRH9-0ciH-72" value="1.统计【备份检童恐盘总数，策略配置异常，快照缺失。快照未完成，快照完成数】数据添加到汇总sheet中&lt;br&gt;2.备份策略导常，备份缺失，备份未完成，添加到邮件正文&lt;br&gt;3.各项数据汇总至对应的附件sheet中【备份情况汇总表，策略配置异常，快照完成，快照缺失，快照未完成，特殊策略】&lt;br&gt;4.添加邮件附件，发送邮件给配置文件中配置的收件人" style="rounded=0;whiteSpace=wrap;html=1;align=left;" parent="WIyWlLk6GJQsqaUBKTNV-1" vertex="1">
          <mxGeometry x="100" y="1790" width="570" height="90" as="geometry" />
        </mxCell>
        <mxCell id="L8nHPf2Kupn2UbBE6luy-4" value="" style="edgeStyle=orthogonalEdgeStyle;rounded=0;orthogonalLoop=1;jettySize=auto;html=1;" edge="1" parent="WIyWlLk6GJQsqaUBKTNV-1" source="L8nHPf2Kupn2UbBE6luy-0" target="L8nHPf2Kupn2UbBE6luy-3">
          <mxGeometry relative="1" as="geometry" />
        </mxCell>
        <mxCell id="L8nHPf2Kupn2UbBE6luy-0" value="根据ip_port获取本地的备份策略" style="rounded=1;whiteSpace=wrap;html=1;fontSize=12;glass=0;strokeWidth=1;shadow=0;" vertex="1" parent="WIyWlLk6GJQsqaUBKTNV-1">
          <mxGeometry x="160" y="730" width="120" height="40" as="geometry" />
        </mxCell>
        <mxCell id="L8nHPf2Kupn2UbBE6luy-6" value="" style="edgeStyle=orthogonalEdgeStyle;rounded=0;orthogonalLoop=1;jettySize=auto;html=1;" edge="1" parent="WIyWlLk6GJQsqaUBKTNV-1" source="L8nHPf2Kupn2UbBE6luy-3" target="L8nHPf2Kupn2UbBE6luy-5">
          <mxGeometry relative="1" as="geometry" />
        </mxCell>
        <mxCell id="L8nHPf2Kupn2UbBE6luy-7" value="no" style="edgeLabel;html=1;align=center;verticalAlign=middle;resizable=0;points=[];" vertex="1" connectable="0" parent="L8nHPf2Kupn2UbBE6luy-6">
          <mxGeometry x="-0.3" relative="1" as="geometry">
            <mxPoint as="offset" />
          </mxGeometry>
        </mxCell>
        <mxCell id="L8nHPf2Kupn2UbBE6luy-12" value="" style="edgeStyle=orthogonalEdgeStyle;rounded=0;orthogonalLoop=1;jettySize=auto;html=1;" edge="1" parent="WIyWlLk6GJQsqaUBKTNV-1" source="L8nHPf2Kupn2UbBE6luy-3" target="L8nHPf2Kupn2UbBE6luy-11">
          <mxGeometry relative="1" as="geometry" />
        </mxCell>
        <mxCell id="L8nHPf2Kupn2UbBE6luy-3" value="存在" style="rhombus;whiteSpace=wrap;html=1;shadow=0;fontFamily=Helvetica;fontSize=12;align=center;strokeWidth=1;spacing=6;spacingTop=-4;" vertex="1" parent="WIyWlLk6GJQsqaUBKTNV-1">
          <mxGeometry x="140" y="830" width="160" height="80" as="geometry" />
        </mxCell>
        <mxCell id="L8nHPf2Kupn2UbBE6luy-42" style="edgeStyle=orthogonalEdgeStyle;rounded=0;orthogonalLoop=1;jettySize=auto;html=1;entryX=0.5;entryY=0;entryDx=0;entryDy=0;" edge="1" parent="WIyWlLk6GJQsqaUBKTNV-1" source="L8nHPf2Kupn2UbBE6luy-5" target="El6n9iGaWaCwRH9-0ciH-32">
          <mxGeometry relative="1" as="geometry" />
        </mxCell>
        <mxCell id="L8nHPf2Kupn2UbBE6luy-5" value="备份策略异常" style="rounded=1;whiteSpace=wrap;html=1;fontSize=12;glass=0;strokeWidth=1;shadow=0;" vertex="1" parent="WIyWlLk6GJQsqaUBKTNV-1">
          <mxGeometry x="414" y="850" width="116" height="40" as="geometry" />
        </mxCell>
        <mxCell id="L8nHPf2Kupn2UbBE6luy-14" value="" style="edgeStyle=orthogonalEdgeStyle;rounded=0;orthogonalLoop=1;jettySize=auto;html=1;" edge="1" parent="WIyWlLk6GJQsqaUBKTNV-1" source="L8nHPf2Kupn2UbBE6luy-11" target="L8nHPf2Kupn2UbBE6luy-13">
          <mxGeometry relative="1" as="geometry" />
        </mxCell>
        <mxCell id="L8nHPf2Kupn2UbBE6luy-15" value="no" style="edgeLabel;html=1;align=center;verticalAlign=middle;resizable=0;points=[];" vertex="1" connectable="0" parent="L8nHPf2Kupn2UbBE6luy-14">
          <mxGeometry x="0.0984" y="1" relative="1" as="geometry">
            <mxPoint as="offset" />
          </mxGeometry>
        </mxCell>
        <mxCell id="L8nHPf2Kupn2UbBE6luy-18" value="" style="edgeStyle=orthogonalEdgeStyle;rounded=0;orthogonalLoop=1;jettySize=auto;html=1;" edge="1" parent="WIyWlLk6GJQsqaUBKTNV-1" source="L8nHPf2Kupn2UbBE6luy-11" target="L8nHPf2Kupn2UbBE6luy-17">
          <mxGeometry relative="1" as="geometry" />
        </mxCell>
        <mxCell id="L8nHPf2Kupn2UbBE6luy-11" value="备份保留日期和备份检查周期是否正确" style="rhombus;whiteSpace=wrap;html=1;shadow=0;fontFamily=Helvetica;fontSize=12;align=center;strokeWidth=1;spacing=6;spacingTop=-4;" vertex="1" parent="WIyWlLk6GJQsqaUBKTNV-1">
          <mxGeometry x="140" y="990" width="160" height="80" as="geometry" />
        </mxCell>
        <mxCell id="L8nHPf2Kupn2UbBE6luy-16" style="edgeStyle=orthogonalEdgeStyle;rounded=0;orthogonalLoop=1;jettySize=auto;html=1;entryX=0;entryY=0.5;entryDx=0;entryDy=0;" edge="1" parent="WIyWlLk6GJQsqaUBKTNV-1" source="L8nHPf2Kupn2UbBE6luy-13" target="El6n9iGaWaCwRH9-0ciH-32">
          <mxGeometry relative="1" as="geometry" />
        </mxCell>
        <mxCell id="L8nHPf2Kupn2UbBE6luy-13" value="备份策略异常" style="rounded=1;whiteSpace=wrap;html=1;fontSize=12;glass=0;strokeWidth=1;shadow=0;" vertex="1" parent="WIyWlLk6GJQsqaUBKTNV-1">
          <mxGeometry x="418" y="1010" width="112" height="40" as="geometry" />
        </mxCell>
        <mxCell id="L8nHPf2Kupn2UbBE6luy-20" value="" style="edgeStyle=orthogonalEdgeStyle;rounded=0;orthogonalLoop=1;jettySize=auto;html=1;" edge="1" parent="WIyWlLk6GJQsqaUBKTNV-1" source="L8nHPf2Kupn2UbBE6luy-17" target="L8nHPf2Kupn2UbBE6luy-19">
          <mxGeometry relative="1" as="geometry" />
        </mxCell>
        <mxCell id="L8nHPf2Kupn2UbBE6luy-21" value="no" style="edgeLabel;html=1;align=center;verticalAlign=middle;resizable=0;points=[];" vertex="1" connectable="0" parent="L8nHPf2Kupn2UbBE6luy-20">
          <mxGeometry x="-0.18" y="2" relative="1" as="geometry">
            <mxPoint as="offset" />
          </mxGeometry>
        </mxCell>
        <mxCell id="L8nHPf2Kupn2UbBE6luy-25" value="" style="edgeStyle=orthogonalEdgeStyle;rounded=0;orthogonalLoop=1;jettySize=auto;html=1;" edge="1" parent="WIyWlLk6GJQsqaUBKTNV-1" source="L8nHPf2Kupn2UbBE6luy-17" target="L8nHPf2Kupn2UbBE6luy-24">
          <mxGeometry relative="1" as="geometry" />
        </mxCell>
        <mxCell id="L8nHPf2Kupn2UbBE6luy-17" value="今天需要检查" style="rhombus;whiteSpace=wrap;html=1;shadow=0;fontFamily=Helvetica;fontSize=12;align=center;strokeWidth=1;spacing=6;spacingTop=-4;" vertex="1" parent="WIyWlLk6GJQsqaUBKTNV-1">
          <mxGeometry x="140" y="1140" width="160" height="80" as="geometry" />
        </mxCell>
        <mxCell id="L8nHPf2Kupn2UbBE6luy-19" value="跳过" style="rounded=1;whiteSpace=wrap;html=1;fontSize=12;glass=0;strokeWidth=1;shadow=0;" vertex="1" parent="WIyWlLk6GJQsqaUBKTNV-1">
          <mxGeometry x="416" y="1160" width="112" height="40" as="geometry" />
        </mxCell>
        <mxCell id="L8nHPf2Kupn2UbBE6luy-27" value="" style="edgeStyle=orthogonalEdgeStyle;rounded=0;orthogonalLoop=1;jettySize=auto;html=1;" edge="1" parent="WIyWlLk6GJQsqaUBKTNV-1" source="L8nHPf2Kupn2UbBE6luy-24" target="L8nHPf2Kupn2UbBE6luy-26">
          <mxGeometry relative="1" as="geometry" />
        </mxCell>
        <mxCell id="L8nHPf2Kupn2UbBE6luy-24" value="获取备份数据" style="rounded=1;whiteSpace=wrap;html=1;fontSize=12;glass=0;strokeWidth=1;shadow=0;" vertex="1" parent="WIyWlLk6GJQsqaUBKTNV-1">
          <mxGeometry x="164" y="1300" width="112" height="40" as="geometry" />
        </mxCell>
        <mxCell id="L8nHPf2Kupn2UbBE6luy-29" value="" style="edgeStyle=orthogonalEdgeStyle;rounded=0;orthogonalLoop=1;jettySize=auto;html=1;" edge="1" parent="WIyWlLk6GJQsqaUBKTNV-1" source="L8nHPf2Kupn2UbBE6luy-26" target="L8nHPf2Kupn2UbBE6luy-28">
          <mxGeometry relative="1" as="geometry" />
        </mxCell>
        <mxCell id="L8nHPf2Kupn2UbBE6luy-31" value="" style="edgeStyle=orthogonalEdgeStyle;rounded=0;orthogonalLoop=1;jettySize=auto;html=1;" edge="1" parent="WIyWlLk6GJQsqaUBKTNV-1" source="L8nHPf2Kupn2UbBE6luy-26" target="L8nHPf2Kupn2UbBE6luy-30">
          <mxGeometry relative="1" as="geometry" />
        </mxCell>
        <mxCell id="L8nHPf2Kupn2UbBE6luy-32" value="no" style="edgeLabel;html=1;align=center;verticalAlign=middle;resizable=0;points=[];" vertex="1" connectable="0" parent="L8nHPf2Kupn2UbBE6luy-31">
          <mxGeometry x="-0.18" y="1" relative="1" as="geometry">
            <mxPoint as="offset" />
          </mxGeometry>
        </mxCell>
        <mxCell id="L8nHPf2Kupn2UbBE6luy-26" value="备份是否生成" style="rhombus;whiteSpace=wrap;html=1;shadow=0;fontFamily=Helvetica;fontSize=12;align=center;strokeWidth=1;spacing=6;spacingTop=-4;" vertex="1" parent="WIyWlLk6GJQsqaUBKTNV-1">
          <mxGeometry x="140" y="1380" width="160" height="80" as="geometry" />
        </mxCell>
        <mxCell id="L8nHPf2Kupn2UbBE6luy-37" style="edgeStyle=orthogonalEdgeStyle;rounded=0;orthogonalLoop=1;jettySize=auto;html=1;entryX=0;entryY=0.5;entryDx=0;entryDy=0;" edge="1" parent="WIyWlLk6GJQsqaUBKTNV-1" source="L8nHPf2Kupn2UbBE6luy-28" target="L8nHPf2Kupn2UbBE6luy-34">
          <mxGeometry relative="1" as="geometry" />
        </mxCell>
        <mxCell id="L8nHPf2Kupn2UbBE6luy-38" style="edgeStyle=orthogonalEdgeStyle;rounded=0;orthogonalLoop=1;jettySize=auto;html=1;entryX=0;entryY=0.5;entryDx=0;entryDy=0;" edge="1" parent="WIyWlLk6GJQsqaUBKTNV-1" source="L8nHPf2Kupn2UbBE6luy-28" target="L8nHPf2Kupn2UbBE6luy-36">
          <mxGeometry relative="1" as="geometry">
            <Array as="points">
              <mxPoint x="220" y="1630" />
            </Array>
          </mxGeometry>
        </mxCell>
        <mxCell id="L8nHPf2Kupn2UbBE6luy-40" style="edgeStyle=orthogonalEdgeStyle;rounded=0;orthogonalLoop=1;jettySize=auto;html=1;entryX=0;entryY=0.5;entryDx=0;entryDy=0;" edge="1" parent="WIyWlLk6GJQsqaUBKTNV-1" source="L8nHPf2Kupn2UbBE6luy-28" target="L8nHPf2Kupn2UbBE6luy-35">
          <mxGeometry relative="1" as="geometry">
            <Array as="points">
              <mxPoint x="220" y="1690" />
            </Array>
          </mxGeometry>
        </mxCell>
        <mxCell id="L8nHPf2Kupn2UbBE6luy-28" value="备份状态判断" style="rhombus;whiteSpace=wrap;html=1;shadow=0;fontFamily=Helvetica;fontSize=12;align=center;strokeWidth=1;spacing=6;spacingTop=-4;" vertex="1" parent="WIyWlLk6GJQsqaUBKTNV-1">
          <mxGeometry x="140" y="1530" width="160" height="80" as="geometry" />
        </mxCell>
        <mxCell id="L8nHPf2Kupn2UbBE6luy-33" style="edgeStyle=orthogonalEdgeStyle;rounded=0;orthogonalLoop=1;jettySize=auto;html=1;entryX=0;entryY=0.5;entryDx=0;entryDy=0;" edge="1" parent="WIyWlLk6GJQsqaUBKTNV-1" source="L8nHPf2Kupn2UbBE6luy-30" target="El6n9iGaWaCwRH9-0ciH-32">
          <mxGeometry relative="1" as="geometry" />
        </mxCell>
        <mxCell id="L8nHPf2Kupn2UbBE6luy-30" value="备份缺失数+1" style="rounded=1;whiteSpace=wrap;html=1;fontSize=12;glass=0;strokeWidth=1;shadow=0;" vertex="1" parent="WIyWlLk6GJQsqaUBKTNV-1">
          <mxGeometry x="416" y="1400" width="112" height="40" as="geometry" />
        </mxCell>
        <mxCell id="L8nHPf2Kupn2UbBE6luy-41" style="edgeStyle=orthogonalEdgeStyle;rounded=0;orthogonalLoop=1;jettySize=auto;html=1;entryX=0;entryY=0.5;entryDx=0;entryDy=0;" edge="1" parent="WIyWlLk6GJQsqaUBKTNV-1" source="L8nHPf2Kupn2UbBE6luy-34" target="El6n9iGaWaCwRH9-0ciH-32">
          <mxGeometry relative="1" as="geometry" />
        </mxCell>
        <mxCell id="L8nHPf2Kupn2UbBE6luy-34" value="备份缺失数+1" style="rounded=1;whiteSpace=wrap;html=1;fontSize=12;glass=0;strokeWidth=1;shadow=0;" vertex="1" parent="WIyWlLk6GJQsqaUBKTNV-1">
          <mxGeometry x="418" y="1550" width="112" height="40" as="geometry" />
        </mxCell>
        <mxCell id="L8nHPf2Kupn2UbBE6luy-44" style="edgeStyle=orthogonalEdgeStyle;rounded=0;orthogonalLoop=1;jettySize=auto;html=1;entryX=0;entryY=0.5;entryDx=0;entryDy=0;" edge="1" parent="WIyWlLk6GJQsqaUBKTNV-1" source="L8nHPf2Kupn2UbBE6luy-35" target="El6n9iGaWaCwRH9-0ciH-32">
          <mxGeometry relative="1" as="geometry" />
        </mxCell>
        <mxCell id="L8nHPf2Kupn2UbBE6luy-35" value="备份成功数量+1" style="rounded=1;whiteSpace=wrap;html=1;fontSize=12;glass=0;strokeWidth=1;shadow=0;" vertex="1" parent="WIyWlLk6GJQsqaUBKTNV-1">
          <mxGeometry x="420" y="1670" width="112" height="40" as="geometry" />
        </mxCell>
        <mxCell id="L8nHPf2Kupn2UbBE6luy-43" style="edgeStyle=orthogonalEdgeStyle;rounded=0;orthogonalLoop=1;jettySize=auto;html=1;entryX=0;entryY=0.5;entryDx=0;entryDy=0;" edge="1" parent="WIyWlLk6GJQsqaUBKTNV-1" source="L8nHPf2Kupn2UbBE6luy-36" target="El6n9iGaWaCwRH9-0ciH-32">
          <mxGeometry relative="1" as="geometry" />
        </mxCell>
        <mxCell id="L8nHPf2Kupn2UbBE6luy-36" value="备份进行中数量+1" style="rounded=1;whiteSpace=wrap;html=1;fontSize=12;glass=0;strokeWidth=1;shadow=0;" vertex="1" parent="WIyWlLk6GJQsqaUBKTNV-1">
          <mxGeometry x="420" y="1610" width="112" height="40" as="geometry" />
        </mxCell>
      </root>
    </mxGraphModel>
  </diagram>
</mxfile>
